<mxfile host="app.diagrams.net" agent="Mozilla/5.0 (Windows NT 10.0; Win64; x64) AppleWebKit/537.36 (KHTML, like Gecko) Chrome/129.0.0.0 Safari/537.36 Edg/129.0.0.0" version="24.7.14">
  <diagram name="Page-1" id="AYdZuThmre4MdXYBGvmi">
    <mxGraphModel dx="954" dy="824" grid="1" gridSize="10" guides="1" tooltips="1" connect="1" arrows="1" fold="1" page="1" pageScale="1" pageWidth="827" pageHeight="1169" math="0" shadow="0">
      <root>
        <mxCell id="0" />
        <mxCell id="1" parent="0" />
        <mxCell id="sAs0kRqRPAIiKEbjEO-T-3" style="edgeStyle=orthogonalEdgeStyle;rounded=0;orthogonalLoop=1;jettySize=auto;html=1;entryX=0;entryY=0.5;entryDx=0;entryDy=0;" edge="1" parent="1" source="sAs0kRqRPAIiKEbjEO-T-1" target="sAs0kRqRPAIiKEbjEO-T-2">
          <mxGeometry relative="1" as="geometry" />
        </mxCell>
        <mxCell id="sAs0kRqRPAIiKEbjEO-T-1" value="&lt;font style=&quot;font-size: 16px;&quot;&gt;Start&lt;/font&gt;" style="triangle;whiteSpace=wrap;html=1;fillColor=#d5e8d4;strokeColor=#82b366;align=left;" vertex="1" parent="1">
          <mxGeometry x="40" y="80" width="60" height="80" as="geometry" />
        </mxCell>
        <mxCell id="sAs0kRqRPAIiKEbjEO-T-5" value="" style="edgeStyle=orthogonalEdgeStyle;rounded=0;orthogonalLoop=1;jettySize=auto;html=1;" edge="1" parent="1" source="sAs0kRqRPAIiKEbjEO-T-2" target="sAs0kRqRPAIiKEbjEO-T-4">
          <mxGeometry relative="1" as="geometry" />
        </mxCell>
        <mxCell id="sAs0kRqRPAIiKEbjEO-T-2" value="&lt;font style=&quot;font-size: 14px;&quot;&gt;Run web application&lt;/font&gt;" style="rounded=0;whiteSpace=wrap;html=1;fillColor=#fff2cc;strokeColor=#d6b656;" vertex="1" parent="1">
          <mxGeometry x="160" y="90" width="120" height="60" as="geometry" />
        </mxCell>
        <mxCell id="sAs0kRqRPAIiKEbjEO-T-7" value="" style="edgeStyle=orthogonalEdgeStyle;rounded=0;orthogonalLoop=1;jettySize=auto;html=1;" edge="1" parent="1" source="sAs0kRqRPAIiKEbjEO-T-4" target="sAs0kRqRPAIiKEbjEO-T-6">
          <mxGeometry relative="1" as="geometry" />
        </mxCell>
        <mxCell id="sAs0kRqRPAIiKEbjEO-T-4" value="&lt;font style=&quot;font-size: 14px;&quot;&gt;Open page on the shopping list&lt;/font&gt;" style="rounded=0;whiteSpace=wrap;html=1;fillColor=#fff2cc;strokeColor=#d6b656;" vertex="1" parent="1">
          <mxGeometry x="320" y="90" width="120" height="60" as="geometry" />
        </mxCell>
        <mxCell id="sAs0kRqRPAIiKEbjEO-T-9" value="" style="edgeStyle=orthogonalEdgeStyle;rounded=0;orthogonalLoop=1;jettySize=auto;html=1;" edge="1" parent="1" source="sAs0kRqRPAIiKEbjEO-T-6" target="sAs0kRqRPAIiKEbjEO-T-8">
          <mxGeometry relative="1" as="geometry" />
        </mxCell>
        <mxCell id="sAs0kRqRPAIiKEbjEO-T-6" value="&lt;font style=&quot;font-size: 14px;&quot;&gt;Fill up and submit the form.&lt;/font&gt;" style="rounded=0;whiteSpace=wrap;html=1;fillColor=#fff2cc;strokeColor=#d6b656;" vertex="1" parent="1">
          <mxGeometry x="480" y="90" width="120" height="60" as="geometry" />
        </mxCell>
        <mxCell id="sAs0kRqRPAIiKEbjEO-T-11" value="" style="edgeStyle=orthogonalEdgeStyle;rounded=0;orthogonalLoop=1;jettySize=auto;html=1;" edge="1" parent="1" source="sAs0kRqRPAIiKEbjEO-T-8" target="sAs0kRqRPAIiKEbjEO-T-10">
          <mxGeometry relative="1" as="geometry" />
        </mxCell>
        <mxCell id="sAs0kRqRPAIiKEbjEO-T-8" value="&lt;font style=&quot;font-size: 14px;&quot;&gt;Send message to the users email address&lt;/font&gt;" style="rounded=0;whiteSpace=wrap;html=1;fillColor=#f5f5f5;fontColor=#333333;strokeColor=#666666;" vertex="1" parent="1">
          <mxGeometry x="480" y="200" width="120" height="80" as="geometry" />
        </mxCell>
        <mxCell id="sAs0kRqRPAIiKEbjEO-T-13" value="" style="edgeStyle=orthogonalEdgeStyle;rounded=0;orthogonalLoop=1;jettySize=auto;html=1;" edge="1" parent="1" source="sAs0kRqRPAIiKEbjEO-T-10" target="sAs0kRqRPAIiKEbjEO-T-12">
          <mxGeometry relative="1" as="geometry" />
        </mxCell>
        <mxCell id="sAs0kRqRPAIiKEbjEO-T-10" value="&lt;font style=&quot;font-size: 14px;&quot;&gt;Send the Shopping List to the Admins account&lt;/font&gt;" style="rounded=0;whiteSpace=wrap;html=1;fillColor=#f5f5f5;fontColor=#333333;strokeColor=#666666;" vertex="1" parent="1">
          <mxGeometry x="320" y="200" width="120" height="80" as="geometry" />
        </mxCell>
        <mxCell id="sAs0kRqRPAIiKEbjEO-T-15" value="" style="edgeStyle=orthogonalEdgeStyle;rounded=0;orthogonalLoop=1;jettySize=auto;html=1;" edge="1" parent="1" source="sAs0kRqRPAIiKEbjEO-T-12" target="sAs0kRqRPAIiKEbjEO-T-14">
          <mxGeometry relative="1" as="geometry" />
        </mxCell>
        <mxCell id="sAs0kRqRPAIiKEbjEO-T-12" value="&lt;span style=&quot;font-size: 14px;&quot;&gt;UiPath Orchestrator receives the Shopping List&lt;/span&gt;" style="rounded=0;whiteSpace=wrap;html=1;fillColor=#e1d5e7;strokeColor=#9673a6;" vertex="1" parent="1">
          <mxGeometry x="290" y="320" width="130" height="80" as="geometry" />
        </mxCell>
        <mxCell id="sAs0kRqRPAIiKEbjEO-T-17" value="" style="edgeStyle=orthogonalEdgeStyle;rounded=0;orthogonalLoop=1;jettySize=auto;html=1;" edge="1" parent="1" source="sAs0kRqRPAIiKEbjEO-T-14" target="sAs0kRqRPAIiKEbjEO-T-16">
          <mxGeometry relative="1" as="geometry" />
        </mxCell>
        <mxCell id="sAs0kRqRPAIiKEbjEO-T-14" value="&lt;span style=&quot;font-size: 14px;&quot;&gt;Orchestrator Triggers a UiPath Process&lt;/span&gt;" style="rounded=0;whiteSpace=wrap;html=1;fillColor=#e1d5e7;strokeColor=#9673a6;" vertex="1" parent="1">
          <mxGeometry x="470" y="330" width="130" height="60" as="geometry" />
        </mxCell>
        <mxCell id="sAs0kRqRPAIiKEbjEO-T-19" value="" style="edgeStyle=orthogonalEdgeStyle;rounded=0;orthogonalLoop=1;jettySize=auto;html=1;" edge="1" parent="1" source="sAs0kRqRPAIiKEbjEO-T-16" target="sAs0kRqRPAIiKEbjEO-T-18">
          <mxGeometry relative="1" as="geometry" />
        </mxCell>
        <mxCell id="sAs0kRqRPAIiKEbjEO-T-16" value="&lt;span style=&quot;font-size: 14px;&quot;&gt;UiPath Robot opens the supermarket websites to scrape prices.&lt;/span&gt;" style="rounded=0;whiteSpace=wrap;html=1;fillColor=#dae8fc;strokeColor=#6c8ebf;" vertex="1" parent="1">
          <mxGeometry x="495" y="440" width="105" height="100" as="geometry" />
        </mxCell>
        <mxCell id="sAs0kRqRPAIiKEbjEO-T-21" value="" style="edgeStyle=orthogonalEdgeStyle;rounded=0;orthogonalLoop=1;jettySize=auto;html=1;" edge="1" parent="1" source="sAs0kRqRPAIiKEbjEO-T-18" target="sAs0kRqRPAIiKEbjEO-T-20">
          <mxGeometry relative="1" as="geometry" />
        </mxCell>
        <mxCell id="sAs0kRqRPAIiKEbjEO-T-18" value="&lt;span style=&quot;font-size: 14px;&quot;&gt;Processing received data in UiPath&lt;/span&gt;" style="rounded=0;whiteSpace=wrap;html=1;fillColor=#dae8fc;strokeColor=#6c8ebf;" vertex="1" parent="1">
          <mxGeometry x="350" y="440" width="90" height="100" as="geometry" />
        </mxCell>
        <mxCell id="sAs0kRqRPAIiKEbjEO-T-23" value="" style="edgeStyle=orthogonalEdgeStyle;rounded=0;orthogonalLoop=1;jettySize=auto;html=1;" edge="1" parent="1" source="sAs0kRqRPAIiKEbjEO-T-20" target="sAs0kRqRPAIiKEbjEO-T-22">
          <mxGeometry relative="1" as="geometry" />
        </mxCell>
        <mxCell id="sAs0kRqRPAIiKEbjEO-T-20" value="&lt;span style=&quot;font-size: 14px;&quot;&gt;The robot saves processed data in an Excel file/database.&lt;/span&gt;" style="rounded=0;whiteSpace=wrap;html=1;fillColor=#dae8fc;strokeColor=#6c8ebf;" vertex="1" parent="1">
          <mxGeometry x="190" y="440" width="110" height="100" as="geometry" />
        </mxCell>
        <mxCell id="sAs0kRqRPAIiKEbjEO-T-25" value="" style="edgeStyle=orthogonalEdgeStyle;rounded=0;orthogonalLoop=1;jettySize=auto;html=1;entryX=0;entryY=0.5;entryDx=0;entryDy=0;" edge="1" parent="1" source="sAs0kRqRPAIiKEbjEO-T-22" target="sAs0kRqRPAIiKEbjEO-T-24">
          <mxGeometry relative="1" as="geometry" />
        </mxCell>
        <mxCell id="sAs0kRqRPAIiKEbjEO-T-22" value="&lt;span style=&quot;font-size: 14px;&quot;&gt;Tthe robot sends an e-mail with information about the results received to the user&lt;/span&gt;" style="rounded=0;whiteSpace=wrap;html=1;fillColor=#dae8fc;strokeColor=#6c8ebf;" vertex="1" parent="1">
          <mxGeometry x="30" y="440" width="110" height="100" as="geometry" />
        </mxCell>
        <mxCell id="sAs0kRqRPAIiKEbjEO-T-27" style="edgeStyle=orthogonalEdgeStyle;rounded=0;orthogonalLoop=1;jettySize=auto;html=1;entryX=0;entryY=0.5;entryDx=0;entryDy=0;" edge="1" parent="1" source="sAs0kRqRPAIiKEbjEO-T-24" target="sAs0kRqRPAIiKEbjEO-T-26">
          <mxGeometry relative="1" as="geometry" />
        </mxCell>
        <mxCell id="sAs0kRqRPAIiKEbjEO-T-24" value="&lt;span style=&quot;font-size: 14px;&quot;&gt;The user can open the website and see the results&lt;/span&gt;" style="rounded=0;whiteSpace=wrap;html=1;fillColor=#fff2cc;strokeColor=#d6b656;" vertex="1" parent="1">
          <mxGeometry x="140" y="610" width="180" height="60" as="geometry" />
        </mxCell>
        <mxCell id="sAs0kRqRPAIiKEbjEO-T-26" value="&lt;font style=&quot;font-size: 16px;&quot;&gt;End&lt;/font&gt;" style="ellipse;whiteSpace=wrap;html=1;aspect=fixed;fillColor=#d5e8d4;strokeColor=#82b366;" vertex="1" parent="1">
          <mxGeometry x="410" y="610" width="60" height="60" as="geometry" />
        </mxCell>
      </root>
    </mxGraphModel>
  </diagram>
</mxfile>
